<svg width="62" height="70" viewBox="0 0 62 70" fill="none" xmlns="http://www.w3.org/2000/svg">
<path d="M0 0H33.4603L62 35L33.4603 70H0V0Z" fill="#0E0E0E"/>
<path fillRule="evenodd" clipRule="evenodd" d="M10.0171 24.8889V45.971C10.0058 46.0717 10 46.174 10 46.2777C10 47.7812 11.2188 49 12.7223 49H33.1281C33.6803 49 34.1281 48.5523 34.1281 48V46.3456V45L34.1285 22C34.1285 21.4477 33.6808 21 33.1285 21H13.906C11.7582 21 10.0171 22.7411 10.0171 24.8889ZM13.5171 23.7696C13.5171 23.1512 12.933 22.6793 12.45 23.0655C11.9152 23.4931 11.5727 24.151 11.5727 24.8889V42.789C11.5727 43.2645 12.0745 43.5555 12.55 43.5555V43.5555V43.5555C13.0841 43.5555 13.5171 43.1225 13.5171 42.5883V23.7696ZM31.8403 45C32.3113 45 32.5755 45.5424 32.2853 45.9132L32.2592 45.9466C32.1085 46.1392 32.1145 46.4113 32.2737 46.597V46.597C32.5591 46.93 32.3225 47.4444 31.8839 47.4444H12.7223C12.0779 47.4444 11.5556 46.9221 11.5556 46.2777C11.5556 45.6334 12.0779 45 12.7223 45H31.8403ZM21.3266 33.6712C20.2501 33.0825 18.8188 32.8129 16.983 32.8129C18.8188 32.8129 20.2501 32.5433 21.3266 31.9546C22.1056 31.5286 22.6988 30.9355 23.1248 30.1565C23.7135 29.08 23.9831 27.6486 23.9831 25.8128C23.9831 27.6486 24.2527 29.08 24.8414 30.1565C25.2674 30.9355 25.8605 31.5286 26.6396 31.9546C27.716 32.5433 29.1474 32.8129 30.9832 32.8129C29.1474 32.8129 27.716 33.0825 26.6396 33.6712C25.8605 34.0973 25.2674 34.6904 24.8414 35.4694C24.2527 36.5459 23.9831 37.9773 23.9831 39.813C23.9831 37.9773 23.7135 36.5459 23.1248 35.4694C22.6988 34.6904 22.1056 34.0973 21.3266 33.6712ZM22.3949 38.8135C22.4331 39.3644 22.8752 39.813 23.4275 39.813H23.9831H24.5387C25.0909 39.813 25.533 39.3644 25.5712 38.8135C25.6899 37.1011 26.123 36.123 26.7081 35.5379C27.2932 34.9528 28.2712 34.5197 29.9836 34.4011C30.5346 34.3629 30.9832 33.9208 30.9832 33.3685V32.8129V32.2574C30.9832 31.7051 30.5346 31.263 29.9836 31.2248C28.2712 31.1062 27.2932 30.673 26.7081 30.088C26.123 29.5029 25.6899 28.5248 25.5712 26.8124C25.533 26.2614 25.0909 25.8128 24.5387 25.8128H23.9831H23.4275C22.8752 25.8128 22.4331 26.2615 22.3949 26.8124C22.2763 28.5248 21.8432 29.5029 21.2581 30.088C20.673 30.673 19.695 31.1062 17.9826 31.2248C17.4316 31.263 16.983 31.7051 16.983 32.2574V32.8129V33.3685C16.983 33.9208 17.4316 34.3629 17.9826 34.4011C19.695 34.5197 20.673 34.9528 21.2581 35.5379C21.8432 36.123 22.2763 37.1011 22.3949 38.8135Z" fill="#7C7C7C"/>
</svg>
