<?xml version="1.0" standalone="no"?>
<!DOCTYPE svg PUBLIC "-//W3C//DTD SVG 20010904//EN"
 "http://www.w3.org/TR/2001/REC-SVG-20010904/DTD/svg10.dtd">
<svg version="1.0" xmlns="http://www.w3.org/2000/svg"
 width="700.000000pt" height="700.000000pt" viewBox="0 0 700.000000 700.000000"
 preserveAspectRatio="xMidYMid meet">
<metadata>
Created by potrace 1.14, written by Peter Selinger 2001-2017
</metadata>
<g transform="translate(0.000000,700.000000) scale(0.100000,-0.100000)"
fill="#000000" stroke="none">
<path d="M570 6985 c-152 -31 -249 -84 -360 -195 -94 -94 -142 -172 -182 -300
l-23 -75 0 -2910 c0 -2743 1 -2914 18 -2975 52 -193 190 -366 357 -448 173
-85 -146 -77 3110 -77 1592 0 2914 3 2937 7 284 49 522 294 563 584 13 91 10
5799 -3 5846 -72 263 -228 437 -469 521 l-93 32 -2895 2 c-2377 1 -2907 -1
-2960 -12z"/>
</g>
</svg>
